<?xml version="1.0" standalone="no"?>
<!DOCTYPE svg PUBLIC "-//W3C//DTD SVG 20010904//EN"
 "http://www.w3.org/TR/2001/REC-SVG-20010904/DTD/svg10.dtd">
<svg version="1.0" xmlns="http://www.w3.org/2000/svg"
 width="700.000000pt" height="700.000000pt" viewBox="0 0 700.000000 700.000000"
 preserveAspectRatio="xMidYMid meet">
<metadata>
Created by potrace 1.11, written by Peter Selinger 2001-2013
</metadata>
<g transform="translate(0.000000,700.000000) scale(0.100000,-0.100000)"
fill="#000000" stroke="none">
<path d="M0 3500 l0 -3500 3500 0 3500 0 0 3500 0 3500 -3500 0 -3500 0 0
-3500z m3428 1283 c-3 -10 -155 -519 -339 -1130 l-334 -1113 -202 0 c-112 0
-203 3 -203 8 0 4 53 189 119 412 l118 405 -100 3 c-55 1 -102 1 -104 -2 -2
-2 -79 -251 -172 -552 l-167 -549 -206 -3 -206 -2 29 97 c16 54 167 559 336
1123 168 564 309 1028 312 1033 4 4 97 6 207 5 l200 -3 -107 -369 c-59 -202
-110 -379 -113 -392 l-6 -24 103 0 103 0 164 535 163 535 205 0 c190 0 204 -1
200 -17z m760 -443 l-60 -180 -177 0 -178 0 -61 -209 c-34 -115 -62 -212 -62
-215 0 -3 79 -6 175 -6 96 0 175 -3 175 -7 0 -5 -24 -82 -54 -173 l-53 -165
-175 -3 -174 -2 -67 -224 c-37 -123 -67 -226 -67 -230 0 -3 83 -6 185 -6 106
0 185 -4 185 -9 0 -10 -128 -362 -133 -368 -2 -2 -175 -2 -384 -1 l-380 3 291
987 291 988 392 0 391 0 -60 -180z m1035 166 c73 -27 110 -80 109 -161 0 -33
-35 -167 -105 -407 -58 -197 -111 -366 -116 -377 -19 -34 -72 -71 -112 -77
-37 -6 -38 -7 -18 -18 12 -6 31 -24 43 -39 36 -49 26 -103 -93 -506 -61 -206
-111 -376 -111 -378 0 -1 -93 -3 -206 -3 -192 0 -206 1 -202 18 3 9 56 191
118 404 94 323 111 390 100 403 -9 11 -33 15 -95 15 l-82 0 -159 -557 -160
-558 -208 -3 -207 -2 6 21 c4 12 151 515 326 1118 175 603 321 1102 324 1109
7 18 795 17 848 -2z m1203 -12 c45 -33 67 -70 71 -121 3 -40 -33 -173 -232
-848 -130 -440 -245 -819 -256 -842 -24 -50 -66 -88 -129 -117 -43 -20 -61
-21 -391 -21 l-345 0 -43 28 c-50 33 -80 92 -81 154 0 53 449 1587 486 1661
15 29 42 65 60 79 66 49 91 52 476 50 343 -2 358 -3 384 -23z m-4858 -210 c29
-20 28 -39 -13 -179 -36 -124 -56 -155 -99 -155 -20 0 -19 -1 4 -13 37 -18 35
-64 -8 -191 -51 -150 -46 -147 -243 -144 l-155 3 102 345 c57 190 103 346 103
348 1 1 65 2 144 2 113 0 147 -3 165 -16z m372 8 c0 -5 -7 -31 -15 -60 l-16
-51 -66 -3 -67 -3 -23 -75 c-13 -41 -23 -78 -23 -82 0 -5 28 -8 61 -8 l62 0
-6 -27 c-16 -78 -21 -83 -90 -83 l-64 0 -22 -74 c-11 -41 -24 -82 -27 -90 -5
-14 4 -16 61 -16 l67 0 -7 -27 c-3 -15 -13 -42 -20 -60 l-14 -33 -132 0 c-101
0 -130 3 -127 13 3 6 50 164 104 350 l99 337 132 0 c73 0 133 -4 133 -8z
m-1009 -889 l-17 -58 -52 -3 c-50 -3 -52 -4 -62 -40 -5 -20 -43 -149 -83 -287
l-73 -250 -67 -3 c-37 -2 -67 1 -67 5 1 4 38 134 84 288 l83 280 -48 3 c-27 2
-49 5 -49 8 0 3 7 30 16 60 l15 54 169 0 168 0 -17 -57z m199 49 c0 -4 -16
-62 -35 -129 -19 -67 -35 -127 -35 -132 0 -6 18 -11 39 -11 l40 0 25 83 c13
45 32 108 41 140 l16 57 69 0 68 0 -45 -152 c-25 -84 -71 -241 -103 -348 l-57
-195 -66 -3 c-37 -2 -67 1 -67 5 0 5 18 69 40 143 22 74 40 139 40 143 0 5
-19 7 -42 5 l-42 -3 -43 -144 c-24 -79 -45 -146 -47 -148 -2 -2 -33 -3 -68 -1
l-64 3 102 345 c57 190 103 346 103 348 2 6 131 1 131 -6z m550 0 c0 -5 -7
-31 -15 -60 l-16 -51 -66 -3 -67 -3 -18 -60 c-10 -33 -21 -68 -24 -77 -4 -15
4 -17 59 -20 l65 -3 -17 -55 -17 -55 -65 -3 -66 -3 -22 -74 c-11 -40 -24 -81
-27 -89 -5 -14 4 -16 61 -16 l67 0 -7 -27 c-3 -15 -13 -42 -20 -60 l-14 -33
-132 0 c-101 0 -130 3 -127 13 3 6 50 164 104 350 l99 337 132 0 c73 0 133 -4
133 -8z"/>
<path d="M4690 4195 c0 -4 -123 -425 -146 -498 -5 -16 2 -18 92 -15 91 3 98 5
116 29 18 24 137 406 138 441 0 36 -28 48 -116 48 -46 0 -84 -2 -84 -5z"/>
<path d="M5857 4183 c-19 -23 -391 -1279 -383 -1298 9 -24 167 -21 189 3 21
23 391 1277 383 1297 -9 23 -167 21 -189 -2z"/>
<path d="M1340 4108 c-13 -46 -25 -89 -28 -96 -3 -10 6 -12 39 -10 44 3 44 3
62 58 9 30 20 72 23 93 l7 37 -40 0 -39 0 -24 -82z"/>
<path d="M1257 3821 c-34 -114 -34 -121 1 -121 42 0 57 18 80 100 31 105 30
110 -16 110 l-38 0 -27 -89z"/>
</g>
</svg>
